<?xml version="1.0" encoding="utf-8"?>
<!-- Generator: Adobe Illustrator 24.2.1, SVG Export Plug-In . SVG Version: 6.00 Build 0)  -->
<svg version="1.1" id="图层_1" xmlns="http://www.w3.org/2000/svg" xmlns:xlink="http://www.w3.org/1999/xlink" x="0px" y="0px"
	 viewBox="0 0 294.97 307.74" style="enable-background:new 0 0 294.97 307.74;" xml:space="preserve">
<style type="text/css">
	.st0{fill:#E71F19;}
</style>
<path class="st0" d="M43.72,90.63c-0.31,1.86-0.47,3.72-0.47,5.59c0,4.97,2.79,7.45,8.38,7.45c4.55,0,8.33-1.6,11.33-4.81l8.69-49.5
	h26.38l-13.66,77.12c-2.28,13.14-7.48,23.53-15.6,31.19c-8.12,7.66-17.41,11.48-27.85,11.48c-10.45,0-17.98-1.92-22.58-5.74
	c-4.6-3.83-6.91-8.85-6.91-15.05c0-8.79,5.43-16.6,16.29-23.43c-5.9-1.45-9.62-4.4-11.17-8.85c-0.93-2.48-1.4-5.28-1.4-8.38
	c0-3.1,0.26-6.26,0.78-9.47l8.69-48.88h26.38L43.72,90.63z M44.49,146.96c6.72,0,11.12-6.11,13.19-18.31l1.55-9
	c-14.38,6.72-21.57,13.5-21.57,20.33c0,2.07,0.59,3.75,1.78,5.04C40.64,146.31,42.32,146.96,44.49,146.96z"/>
<path class="st0" d="M135.27,104.13c2.38,0,4.5-0.52,6.36-1.55l-0.78,17.54c-4.86,4.04-10.4,6.05-16.6,6.05
	c-9.41,0-15.52-2.17-18.31-6.52c-1.86-2.9-2.79-5.97-2.79-9.23c0-3.26,0.21-6.13,0.62-8.61l9.31-52.45h26.38l-8.69,48.88
	c-0.1,0.62-0.16,1.19-0.16,1.71C130.62,102.73,132.17,104.13,135.27,104.13z M116.19,24.06c0-6.62,1.47-11.46,4.42-14.51
	c2.95-3.05,7.53-4.58,13.73-4.58c8.69,0,13.04,3.83,13.04,11.48c0,6.52-1.47,11.28-4.42,14.28c-2.95,3-7.58,4.5-13.89,4.5
	C120.48,35.23,116.19,31.5,116.19,24.06z"/>
<path class="st0" d="M180.74,90.63c-0.31,1.86-0.47,3.72-0.47,5.59c0,4.97,2.79,7.45,8.38,7.45c4.55,0,8.33-1.6,11.33-4.81
	l8.69-49.5h26.38l-13.66,77.12c-2.28,13.14-7.48,23.53-15.6,31.19c-8.12,7.66-17.41,11.48-27.85,11.48
	c-10.45,0-17.98-1.92-22.58-5.74c-4.6-3.83-6.91-8.85-6.91-15.05c0-8.79,5.43-16.6,16.29-23.43c-5.9-1.45-9.62-4.4-11.17-8.85
	c-0.93-2.48-1.4-5.28-1.4-8.38c0-3.1,0.26-6.26,0.78-9.47l8.69-48.88h26.38L180.74,90.63z M181.52,146.96
	c6.72,0,11.12-6.11,13.19-18.31l1.55-9c-14.38,6.72-21.57,13.5-21.57,20.33c0,2.07,0.59,3.75,1.78,5.04
	C177.66,146.31,179.34,146.96,181.52,146.96z"/>
<path class="st0" d="M272.3,104.13c2.38,0,4.5-0.52,6.36-1.55l-0.78,17.54c-4.86,4.04-10.4,6.05-16.6,6.05
	c-9.41,0-15.52-2.17-18.31-6.52c-1.86-2.9-2.79-5.97-2.79-9.23c0-3.26,0.21-6.13,0.62-8.61l9.31-52.45h26.38l-8.69,48.88
	c-0.1,0.62-0.16,1.19-0.16,1.71C267.64,102.73,269.19,104.13,272.3,104.13z M253.21,24.06c0-6.62,1.47-11.46,4.42-14.51
	c2.95-3.05,7.53-4.58,13.73-4.58c8.69,0,13.04,3.83,13.04,11.48c0,6.52-1.47,11.28-4.42,14.28c-2.95,3-7.58,4.5-13.89,4.5
	C257.5,35.23,253.21,31.5,253.21,24.06z"/>
<path class="st0" d="M48.58,301.1c-12,0-20.64-2.69-25.92-8.07c-3.93-3.93-5.9-9.21-5.9-15.83c0-2.17,0.21-4.5,0.62-6.98
	l10.55-60.05l28.4-11.79l-4.5,25.92h42.83l-3.88,21.88H47.96l-3.1,17.54c-0.42,1.97-0.62,3.72-0.62,5.28c0,6.52,3.1,9.78,9.31,9.78
	c3.31,0,6.08-1.4,8.3-4.19c2.22-2.79,3.75-6.52,4.58-11.17h25.76C87.84,288.53,73.3,301.1,48.58,301.1z"/>
<path class="st0" d="M146.96,222.11c11.17,0,19.6,2.43,25.29,7.29c4.45,3.83,6.67,9.16,6.67,15.98c0,2.28-0.26,4.76-0.78,7.45
	l-3.26,18.16c-1.97,10.97-6.54,18.73-13.73,23.28c-7.19,4.55-16.79,6.83-28.79,6.83c-12,0-20.79-2.27-26.38-6.83
	c-4.14-3.41-6.21-8.53-6.21-15.36c0-2.38,0.26-5.02,0.78-7.91l3.26-18.16C107.44,232.35,121.82,222.11,146.96,222.11z
	 M151.15,255.94c0.21-1.03,0.31-2.35,0.31-3.96c0-1.6-0.67-3.39-2.02-5.35c-1.35-1.96-3.7-2.95-7.06-2.95
	c-3.36,0-6.18,1.11-8.46,3.34c-2.28,2.23-3.72,5.2-4.34,8.92l-2.02,11.64c-0.21,1.04-0.31,2.35-0.31,3.96c0,1.61,0.67,3.34,2.02,5.2
	c1.34,1.86,3.7,2.79,7.06,2.79c3.36,0,6.18-1.16,8.46-3.49c2.27-2.33,3.72-5.15,4.34-8.46L151.15,255.94z"/>
<path class="st0" d="M262.41,279.06c2.38,0,4.5-0.52,6.36-1.55L268,295.04c-4.86,4.04-10.81,6.05-17.85,6.05
	c-7.04,0-12.23-1.86-15.6-5.59c-3.36-3.72-5.97-9.98-7.84-18.78l-0.47-2.17c-2.17,0.31-5.43,0.57-9.78,0.78l-4.19,23.59h-26.38
	l20.79-117.78h26.38l-9,51.05c6.1-6.72,14.38-10.09,24.83-10.09c7.03,0,12.23,1.73,15.6,5.2c3.36,3.47,5.04,8.1,5.04,13.89
	c0,11.17-5.85,19.92-17.53,26.23l1.71,5.74C254.86,277.1,257.76,279.06,262.41,279.06z M235.57,243.21c-5.59,0-10.55,2.64-14.9,7.91
	l-1.71,10.24c15.31-0.62,22.97-4.71,22.97-12.26c0-1.76-0.54-3.18-1.63-4.27C239.22,243.76,237.64,243.21,235.57,243.21z"/>
</svg>
